<?xml version="1.0" standalone="no"?>
<!DOCTYPE svg PUBLIC "-//W3C//DTD SVG 1.1//EN" "http://www.w3.org/Graphics/SVG/1.1/DTD/svg11.dtd" >
<svg xmlns="http://www.w3.org/2000/svg" xmlns:xlink="http://www.w3.org/1999/xlink" version="1.1">
<metadata>
Created by FontForge 20170731 at Thu Jun 17 01:46:20 2021
 By Aleksey,,,
Chalet (C) 2000 House Industries/Brand Design Co. Inc. House Industries is a registered trademark of House Industries/ Brand Design Co., Inc. 
</metadata>
<defs>
<font id="Chalet-NewYorkNineteenSeventy" horiz-adv-x="458" >
  <font-face 
    font-family="Chalet NewYorkNineteenSeventy"
    font-weight="500"
    font-stretch="normal"
    units-per-em="2048"
    panose-1="0 0 0 0 0 0 0 0 0 0"
    ascent="1638"
    descent="-410"
    x-height="1055"
    cap-height="1421"
    bbox="-94 -516 2144 1958"
    underline-thickness="16"
    underline-position="-128"
    unicode-range="U+0020-FB02"
  />
<missing-glyph horiz-adv-x="1024" 
 />
    <glyph glyph-name=".notdef" horiz-adv-x="1024" 
 />
    <glyph glyph-name=".null" horiz-adv-x="0" 
 />
    <glyph glyph-name="nonmarkingreturn" horiz-adv-x="682" 
 />
    <glyph glyph-name="space" unicode=" " horiz-adv-x="630" 
 />
    <glyph glyph-name="exclam" unicode="!" horiz-adv-x="587" 
d="M430 1421v-997h-270v997h270zM430 268v-268h-270v268h270z" />
    <glyph glyph-name="quotedbl" unicode="&#x22;" horiz-adv-x="763" 
d="M434 1421h262l-45 -587h-174zM68 1421h264l-47 -587h-172z" />
    <glyph glyph-name="numbersign" unicode="#" horiz-adv-x="1101" 
d="M881 885l-52 -353h175l-29 -196h-176l-37 -260h-203l39 260h-203l-37 -260h-202l39 260h-177l29 196h174l51 353h-174l29 194h176l37 267h203l-37 -267h201l36 267h205l-39 -267h174l-28 -194h-174zM678 885h-201l-51 -353h199z" />
    <glyph glyph-name="dollar" unicode="$" horiz-adv-x="1009" 
d="M563 94v-119h-133v121q-161 20 -267 128t-106 284h234q0 -76 38 -123.5t101 -65.5v312q-53 12 -96.5 26.5t-93.5 42t-84.5 62.5t-57 88.5t-22.5 118.5q0 147 94.5 244t259.5 114v119h133v-119q162 -20 256 -125t94 -264h-235q0 60 -30 103.5t-85 60.5v-275
q68 -16 117 -32.5t101.5 -45t85.5 -64t54 -90.5t21 -124q0 -157 -100.5 -257.5t-278.5 -119.5zM430 860v244q-56 -12 -87.5 -45.5t-31.5 -83.5q0 -40 28 -66.5t91 -48.5zM709 455q0 54 -29 87.5t-117 59.5v-287q65 11 105.5 46.5t40.5 93.5z" />
    <glyph glyph-name="percent" unicode="%" horiz-adv-x="1669" 
d="M420 1421q153 0 255.5 -104t102.5 -254q0 -149 -102.5 -252.5t-255.5 -103.5q-152 0 -255.5 103.5t-103.5 252.5q0 150 103.5 254t255.5 104zM334 0l780 1421h219l-780 -1421h-219zM1247 0q-153 0 -255.5 104t-102.5 254q0 149 103 254t255 105q151 0 255 -105t104 -254
q0 -150 -103.5 -254t-255.5 -104zM420 899q64 0 109.5 48t45.5 116t-45.5 116t-109.5 48q-63 0 -108.5 -48.5t-45.5 -115.5t45.5 -115.5t108.5 -48.5zM1247 522q-64 0 -109.5 -48t-45.5 -116t45.5 -115.5t109.5 -47.5q63 0 109.5 48t46.5 115t-46.5 115.5t-109.5 48.5z" />
    <glyph glyph-name="ampersand" unicode="&#x26;" horiz-adv-x="1331" 
d="M997 0l-53 68q-145 -93 -328 -93q-149 0 -275 68.5t-199.5 186.5t-73.5 257q0 120 58 226t167 188q-62 100 -62 197q0 153 105.5 256.5t267.5 103.5q161 0 260 -101t99 -259v-29h-248v31q0 48 -29 84.5t-86 36.5q-56 0 -87.5 -36.5t-31.5 -82.5q0 -59 60 -133l407 -518
q34 100 21 266h239q19 -300 -92 -477l189 -240h-308zM793 262l-353 445q-118 -95 -118 -220q0 -111 86.5 -191.5t207.5 -80.5q94 0 177 47z" />
    <glyph glyph-name="quotesingle" unicode="'" horiz-adv-x="399" 
d="M68 1421h262l-45 -587h-174z" />
    <glyph glyph-name="parenleft" unicode="(" horiz-adv-x="665" 
d="M434 1618h215q-148 -193 -229.5 -431.5t-81.5 -496.5t81.5 -496.5t229.5 -431.5h-215q-158 161 -255 413.5t-97 514.5t97 514.5t255 413.5z" />
    <glyph glyph-name="parenright" unicode=")" horiz-adv-x="665" 
d="M231 1618q159 -162 256 -414.5t97 -513.5t-97 -513.5t-256 -414.5h-213q147 193 228.5 431.5t81.5 496.5t-81.5 496.5t-228.5 431.5h213z" />
    <glyph glyph-name="asterisk" unicode="*" horiz-adv-x="800" 
d="M745 1038l-217 4l113 -184l-137 -80l-105 191l-104 -191l-135 80l110 184l-215 -4v158l215 -6l-112 188l137 78l104 -192l105 192l137 -78l-113 -188l217 6v-158z" />
    <glyph glyph-name="plus" unicode="+" horiz-adv-x="1073" 
d="M997 440h-325v-336h-271v336h-325v252h325v334h271v-334h325v-252z" />
    <glyph glyph-name="comma" unicode="," horiz-adv-x="479" 
d="M385 289v-324q0 -134 -72 -211.5t-192 -89.5v127q62 13 94.5 58t32.5 114v37h-154v289h291z" />
    <glyph glyph-name="hyphen" unicode="-" horiz-adv-x="677" 
d="M61 442v252h555v-252h-555z" />
    <glyph glyph-name="period" unicode="." horiz-adv-x="479" 
d="M385 289v-289h-291v289h291z" />
    <glyph glyph-name="slash" unicode="/" horiz-adv-x="690" 
d="M4 0l432 1524h281l-432 -1524h-281z" />
    <glyph glyph-name="zero" unicode="0" horiz-adv-x="1533" 
d="M768 1456q197 0 356.5 -98.5t248.5 -267.5t89 -373q0 -205 -89 -374.5t-248.5 -268.5t-356.5 -99q-198 0 -358 99t-249 268.5t-89 374.5q0 204 89 373t249 267.5t358 98.5zM768 231q174 0 298 143t124 343q0 198 -124 340.5t-298 142.5q-116 0 -213.5 -65.5t-154 -176.5
t-56.5 -241q0 -200 124 -343t300 -143z" />
    <glyph glyph-name="one" unicode="1" horiz-adv-x="790" 
d="M512 1421v-1421h-270v1169h-164v252h434z" />
    <glyph glyph-name="two" unicode="2" horiz-adv-x="1107" 
d="M561 252h451v-252h-992l539 631q120 143 155.5 213t35.5 157q0 30 -11.5 60.5t-34.5 59.5t-65 47t-96 18q-108 0 -164.5 -67.5t-56.5 -166.5h-271q0 221 141 362.5t351 141.5q135 0 245 -61.5t171 -165.5t61 -228q0 -101 -29 -185.5t-82.5 -160t-154.5 -188.5z" />
    <glyph glyph-name="three" unicode="3" horiz-adv-x="1171" 
d="M1102 500q0 -229 -150.5 -378t-380.5 -149q-221 0 -368.5 123.5t-171.5 300.5h276q24 -71 92.5 -112t171.5 -41q119 0 189.5 69.5t70.5 186.5q0 118 -69.5 185.5t-196.5 76.5q-99 7 -250 -12l279 419h-471v252h956l-340 -473q168 -31 265.5 -147.5t97.5 -300.5z" />
    <glyph glyph-name="four" unicode="4" horiz-adv-x="1116" 
d="M1055 291h-152v-291h-252v291h-620v237l557 893h315v-893h152v-237zM651 528v564l-352 -564h352z" />
    <glyph glyph-name="five" unicode="5" horiz-adv-x="1189" 
d="M1126 500q0 -229 -151 -378t-381 -149q-124 0 -234.5 44t-185.5 124q-101 107 -119 254h275q23 -77 94 -123.5t170 -46.5q118 0 189 76.5t71 198.5q0 129 -77.5 200.5t-182.5 71.5q-71 0 -136.5 -33.5t-107.5 -95.5h-268l176 778h762v-252h-557l-51 -200q101 53 215 53
q99 0 190 -39t159.5 -106.5t109 -166t40.5 -210.5z" />
    <glyph glyph-name="six" unicode="6" horiz-adv-x="1159" 
d="M1100 492q0 -141 -67.5 -259.5t-186.5 -188t-264 -69.5q-144 0 -262.5 69.5t-185 188t-66.5 259.5q0 151 120 362l312 567h309l-238 -430q113 7 213 -31.5t168.5 -107.5t108 -163t39.5 -197zM829 492q0 106 -72 179.5t-175 73.5q-102 0 -174 -74t-72 -179
q0 -104 72.5 -178t173.5 -74q103 0 175 74t72 178z" />
    <glyph glyph-name="seven" unicode="7" horiz-adv-x="1071" 
d="M1055 1421l-649 -1421h-287l536 1169h-620v252h1020z" />
    <glyph glyph-name="eight" unicode="8" horiz-adv-x="1122" 
d="M1063 477q0 -136 -66 -251.5t-181.5 -183t-254.5 -67.5q-140 0 -255.5 67.5t-181 183t-65.5 251.5q0 127 61 229t165 164q-101 91 -101 230q0 140 110.5 248t266.5 108t266.5 -108t110.5 -248q0 -141 -102 -230q106 -62 166.5 -164t60.5 -229zM438 1085q0 -54 36 -90.5
t87 -36.5t87 36.5t36 90.5q0 52 -36 88.5t-87 36.5t-87 -36.5t-36 -88.5zM791 477q0 100 -67.5 171t-162.5 71t-163 -71t-68 -171q0 -101 68 -172.5t163 -71.5t162.5 71.5t67.5 172.5z" />
    <glyph glyph-name="nine" unicode="9" horiz-adv-x="1157" 
d="M1090 938q0 -147 -115 -352l-322 -586h-309l242 438q-113 -7 -213 31.5t-168.5 108t-108 163.5t-39.5 197q0 141 67.5 259.5t186.5 187.5t264 69q218 0 366.5 -150.5t148.5 -365.5zM821 938q0 104 -72.5 179t-173.5 75q-102 0 -174.5 -74.5t-72.5 -179.5q0 -106 72 -180
t175 -74q102 0 174 74.5t72 179.5z" />
    <glyph glyph-name="colon" unicode=":" horiz-adv-x="501" 
d="M397 1018v-289h-291v289h291zM397 289v-289h-291v289h291z" />
    <glyph glyph-name="semicolon" unicode=";" horiz-adv-x="501" 
d="M397 1018v-289h-291v289h291zM258 0h-152v289h291v-324q0 -134 -72 -211.5t-192 -89.5v127q62 13 93.5 58t31.5 114v37z" />
    <glyph glyph-name="less" unicode="&#x3c;" horiz-adv-x="919" 
d="M856 786l-526 -221l526 -223v-276l-793 364v268l793 367v-279z" />
    <glyph glyph-name="equal" unicode="=" horiz-adv-x="1034" 
d="M958 922v-252h-882v252h882zM958 461v-250h-882v250h882z" />
    <glyph glyph-name="greater" unicode="&#x3e;" horiz-adv-x="921" 
d="M858 698v-268l-795 -364v276l527 223l-527 221v279z" />
    <glyph glyph-name="question" unicode="?" horiz-adv-x="1130" 
d="M336 991h-268q0 208 133 335.5t358 127.5q222 0 349.5 -115.5t127.5 -300.5q0 -116 -61.5 -198.5t-177.5 -159.5q-71 -47 -101 -95t-30 -114v-47h-248v47q0 62 14 115.5t33 90t52.5 72.5t58.5 56t65 49q70 50 98.5 90.5t28.5 93.5q0 75 -56 121.5t-153 46.5
q-107 0 -165 -60t-58 -155zM676 268v-268h-270v268h270z" />
    <glyph glyph-name="at" unicode="@" horiz-adv-x="1525" 
d="M1217 313h243q-214 -340 -645 -340q-209 0 -381 95.5t-271.5 265.5t-99.5 379q0 206 98 376.5t265.5 267.5t366.5 97q102 0 198 -23.5t182 -73t150 -120.5t101.5 -173t37.5 -222q0 -132 -52.5 -245t-144.5 -179t-200 -66q-70 0 -123.5 30t-83.5 81q-89 -115 -211 -115
q-131 0 -195 116.5t-14 285.5q39 137 143 231t212 94q104 0 149 -86l16 53h185l-123 -397q-16 -51 1 -78.5t52 -27.5q76 0 131.5 90t55.5 207q0 88 -27 161t-72 123t-105.5 84.5t-126.5 50t-136 15.5q-143 0 -264.5 -74.5t-192 -203t-70.5 -279.5q0 -155 71.5 -282
t197.5 -199t280 -72q123 0 228.5 41.5t173.5 111.5zM852 715q23 72 7 122t-62 50q-45 0 -93.5 -49t-72.5 -123q-22 -71 -6 -121.5t61 -50.5q46 0 94.5 50.5t71.5 121.5z" />
    <glyph glyph-name="A" unicode="A" horiz-adv-x="1282" 
d="M1157 942v-942h-270v397h-490v-397h-270v942q0 109 37 204.5t106 164.5q145 145 371 145q228 0 373 -145q69 -69 106 -164.5t37 -204.5zM887 657v291q0 114 -65.5 179t-180.5 65q-114 0 -179 -65t-65 -179v-291h490z" />
    <glyph glyph-name="B" unicode="B" horiz-adv-x="1187" 
d="M1126 418q0 -191 -119.5 -304.5t-324.5 -113.5h-555v997q0 93 34.5 177t98.5 147q135 135 334 135q204 0 335.5 -117.5t131.5 -302.5q0 -173 -125 -276q92 -48 141 -135t49 -207zM397 997v-131h226q10 0 23.5 1.5t41 10t48 24t36.5 47.5t16 75q0 84 -55.5 126t-138.5 42
q-85 0 -141 -56t-56 -139zM848 430q0 89 -54.5 136.5t-156.5 47.5h-240v-362h244q91 0 149 41t58 137z" />
    <glyph glyph-name="C" unicode="C" horiz-adv-x="1449" 
d="M1401 451q-68 -219 -239.5 -347.5t-405.5 -128.5q-143 0 -270.5 58t-219 156.5t-145 236.5t-53.5 291q0 205 90.5 375t248.5 268t349 98q239 0 409.5 -126.5t237.5 -346.5h-293q-49 101 -142 163t-212 62q-114 0 -210.5 -67t-152 -180.5t-55.5 -245.5q0 -133 55.5 -247
t152 -181.5t210.5 -67.5q117 0 210.5 64.5t143.5 165.5h291z" />
    <glyph glyph-name="D" unicode="D" horiz-adv-x="1366" 
d="M1298 711q0 -325 -174.5 -518t-466.5 -193h-526v1421h526q296 0 468.5 -191t172.5 -519zM1028 713q0 68 -9 128t-34 122t-65 106t-107.5 72t-155.5 28h-256v-917h256q67 0 122 17t92.5 44t66.5 66.5t45.5 79.5t27 87.5t14 86.5t3.5 80z" />
    <glyph glyph-name="E" unicode="E" horiz-adv-x="1157" 
d="M397 975v-137h576v-252h-576v-137q0 -98 42 -140.5t139 -42.5h499v-266h-502q-215 0 -331.5 122t-116.5 331v516q0 208 116 330t332 122h502v-266h-499q-97 0 -139 -41t-42 -139z" />
    <glyph glyph-name="F" unicode="F" horiz-adv-x="1060" 
d="M397 975v-141h504v-252h-504v-582h-270v969q0 208 116 330t330 122h435v-266h-433q-97 0 -137.5 -41t-40.5 -139z" />
    <glyph glyph-name="G" unicode="G" horiz-adv-x="1513" 
d="M758 -25q-143 0 -271 58t-219.5 156.5t-145.5 236.5t-54 291q0 205 91 375t249.5 268t349.5 98q235 0 406 -126t239 -347h-291q-53 104 -144 164.5t-210 60.5q-116 0 -213 -67t-152 -180.5t-55 -245.5q0 -133 55 -247t152 -181.5t213 -67.5q147 0 252.5 91.5t136.5 226.5
h-352v252h649q6 -184 -43.5 -338t-141 -258t-221 -162t-280.5 -58z" />
    <glyph glyph-name="H" unicode="H" horiz-adv-x="1310" 
d="M1180 1421v-1421h-271v600h-506v-600h-272v1421h272v-569h506v569h271z" />
    <glyph glyph-name="I" unicode="I" horiz-adv-x="542" 
d="M408 1421v-1421h-271v1421h271z" />
    <glyph glyph-name="J" unicode="J" horiz-adv-x="878" 
d="M305 0h-270v266h268q95 0 136.5 44t41.5 143v968h271v-972q0 -208 -116 -328.5t-331 -120.5z" />
    <glyph glyph-name="K" unicode="K" horiz-adv-x="1290" 
d="M1012 711q149 -88 149 -301v-410h-270v403q0 94 -44.5 138.5t-139.5 44.5h-304v-586h-272v1421h272v-583h304q95 0 139.5 44t44.5 138v401h270v-409q0 -213 -149 -301z" />
    <glyph glyph-name="L" unicode="L" horiz-adv-x="1038" 
d="M573 0q-215 0 -330.5 120.5t-115.5 328.5v972h270v-968q0 -99 41 -143t137 -44h429v-266h-431z" />
    <glyph glyph-name="M" unicode="M" horiz-adv-x="2039" 
d="M1915 944v-944h-270v948q0 103 -69 173.5t-177 70.5q-110 0 -176 -70t-66 -174v-948h-272v948q0 103 -68 173.5t-176 70.5q-110 0 -178 -70t-68 -174v-948h-268v944q0 217 145 364.5t369 147.5q116 0 213.5 -48.5t165.5 -135.5q66 86 165 135t214 49q149 0 268 -68.5
t183.5 -185t64.5 -258.5z" />
    <glyph glyph-name="N" unicode="N" horiz-adv-x="1282" 
d="M641 1456q228 0 373 -145q69 -69 106 -164.5t37 -204.5v-942h-270v948q0 114 -65.5 179t-180.5 65q-114 0 -179 -65t-65 -179v-948h-270v942q0 109 37 204.5t106 164.5q145 145 371 145z" />
    <glyph glyph-name="O" unicode="O" horiz-adv-x="1525" 
d="M764 1456q197 0 356.5 -98.5t248.5 -267.5t89 -373q0 -205 -89 -374.5t-248.5 -268.5t-356.5 -99q-198 0 -358 99t-249 268.5t-89 374.5q0 204 89 373t249 267.5t358 98.5zM764 231q174 0 298 143t124 343q0 198 -124 340.5t-298 142.5q-116 0 -213.5 -65.5t-154 -176.5
t-56.5 -241q0 -200 124 -343t300 -143z" />
    <glyph glyph-name="P" unicode="P" horiz-adv-x="1236" 
d="M1186 936q0 -144 -72 -265.5t-189 -189t-249 -67.5h-279v-414h-270v936q0 142 69 261t190.5 189t268.5 70q148 0 270 -70t191.5 -189t69.5 -261zM915 930q0 112 -76.5 191t-183.5 79q-106 0 -182 -79t-76 -191v-268h258q107 0 183.5 79t76.5 189z" />
    <glyph glyph-name="Q" unicode="Q" horiz-adv-x="1523" 
d="M891 -12v-228h-258v228q-250 46 -407.5 249t-157.5 480q0 204 88.5 373t248 267.5t357.5 98.5q197 0 356.5 -98.5t248.5 -267.5t89 -373q0 -277 -157.5 -480t-407.5 -249zM1186 717q0 130 -57 241.5t-155 176.5t-212 65t-212 -65t-155 -176.5t-57 -241.5
q0 -162 81.5 -291.5t213.5 -175.5v196h258v-196q132 46 213.5 175.5t81.5 291.5z" />
    <glyph glyph-name="R" unicode="R" horiz-adv-x="1236" 
d="M1102 430v-430h-271v418q0 42 -25 68t-69 26h-338v-512h-272v952q0 101 35 193.5t100 161.5q69 72 163.5 110.5t201.5 38.5q139 0 254.5 -62.5t181 -167.5t65.5 -229q0 -212 -147 -333q121 -75 121 -234zM633 760q106 0 164.5 59t58.5 160q0 93 -63 155t-162 62
q-109 0 -170.5 -70t-61.5 -174v-192h234z" />
    <glyph glyph-name="S" unicode="S" horiz-adv-x="1064" 
d="M1051 1165q-82 0 -149.5 -20.5t-106.5 -54.5q-58 -52 -87.5 -137.5t-29.5 -241.5q0 -86 -7.5 -155t-28 -149t-65.5 -150t-112 -126q-162 -134 -449 -131v256q184 0 279 78q56 47 84.5 132t28.5 245q0 205 50 342.5t160 232.5q148 134 433 137v-258z" />
    <glyph glyph-name="T" unicode="T" horiz-adv-x="1097" 
d="M1065 1169h-381v-1169h-270v1169h-381v252h1032v-252z" />
    <glyph glyph-name="U" unicode="U" horiz-adv-x="1282" 
d="M641 -25q-108 0 -204 37.5t-167 106.5q-143 146 -143 370v932h270v-936q0 -115 65 -180t179 -65q116 0 181 65t65 180v936h270v-932q0 -224 -143 -370q-147 -144 -373 -144z" />
    <glyph glyph-name="V" unicode="V" horiz-adv-x="1236" 
d="M1229 1421l-465 -1421h-291l-467 1421h287l325 -1095l324 1095h287z" />
    <glyph glyph-name="W" unicode="W" horiz-adv-x="2039" 
d="M1915 1421v-934q0 -142 -64.5 -258.5t-183.5 -185t-268 -68.5q-115 0 -214 49.5t-165 135.5q-68 -87 -165.5 -136t-213.5 -49q-224 0 -369 147.5t-145 364.5v934h268v-936q0 -104 68 -174.5t178 -70.5q108 0 176 70.5t68 174.5v936h272v-936q0 -103 67.5 -174t174.5 -71
q108 0 177 71t69 174v936h270z" />
    <glyph glyph-name="X" unicode="X" horiz-adv-x="1286" 
d="M993 723q164 -116 164 -358v-365h-270v352q0 114 -64.5 179t-179.5 65t-179.5 -65t-64.5 -179v-352h-270v365q0 243 166 358q-166 115 -166 358v340h270v-329q0 -114 64.5 -179t179.5 -65t179.5 65t64.5 179v329h270v-340q0 -242 -164 -358z" />
    <glyph glyph-name="Y" unicode="Y" horiz-adv-x="1255" 
d="M1143 1421v-393q0 -110 -37.5 -206t-106.5 -165q-99 -99 -235 -129v-528h-272v528q-138 31 -236 129q-69 69 -106 165t-37 206v393h272v-399q0 -116 64.5 -180t179.5 -64q114 0 178.5 64.5t64.5 179.5v399h271z" />
    <glyph glyph-name="Z" unicode="Z" horiz-adv-x="1126" 
d="M1073 252v-252h-1022v242l688 927h-665v252h983v-239l-688 -930h704z" />
    <glyph glyph-name="bracketleft" unicode="[" horiz-adv-x="649" 
d="M373 1456v-1483h250v-221h-492v1925h492v-221h-250z" />
    <glyph glyph-name="backslash" unicode="\" horiz-adv-x="692" 
d="M686 0h-280l-433 1524h283z" />
    <glyph glyph-name="bracketright" unicode="]" horiz-adv-x="690" 
d="M559 1677v-1925h-512v221h260v1483h-260v221h512z" />
    <glyph glyph-name="asciicircum" unicode="^" horiz-adv-x="1134" 
d="M797 528l-230 625l-229 -625h-270l366 893h266l367 -893h-270z" />
    <glyph glyph-name="underscore" unicode="_" horiz-adv-x="1650" 
d="M1655 -143v-252h-1659v252h1659z" />
    <glyph glyph-name="grave" unicode="`" horiz-adv-x="854" 
d="M152 1481h301l190 -289h-199z" />
    <glyph glyph-name="a" unicode="a" horiz-adv-x="1259" 
d="M1145 526v-526h-256v111q-122 -134 -322 -134q-137 0 -253.5 73.5t-184.5 200t-68 275.5q0 152 68.5 278.5t193.5 201.5t281 75q155 0 279.5 -75t193 -201.5t68.5 -278.5zM874 524q0 126 -79 214.5t-191 88.5q-113 0 -191.5 -86.5t-78.5 -216.5q0 -125 78.5 -211
t191.5 -86q112 0 191 87t79 210z" />
    <glyph glyph-name="b" unicode="b" horiz-adv-x="1241" 
d="M1180 526q0 -152 -68.5 -277.5t-193 -199.5t-279.5 -74q-156 0 -281 74t-193.5 199.5t-68.5 277.5v998h273v-570q117 123 307 123q137 0 253 -74t183.5 -201t67.5 -276zM909 524q0 130 -78.5 216.5t-191.5 86.5q-112 0 -191 -88.5t-79 -214.5q0 -123 79 -210t191 -87
q113 0 191.5 86t78.5 211z" />
    <glyph glyph-name="c" unicode="c" horiz-adv-x="1169" 
d="M1116 356q-46 -179 -181.5 -280t-328.5 -101q-155 0 -280.5 74t-195 200t-69.5 277t69.5 278t195 202t280.5 75q191 0 326.5 -101.5t181.5 -279.5h-289q-29 57 -88.5 95.5t-130.5 38.5q-112 0 -191 -91t-79 -219q0 -125 79 -214t191 -89q73 0 133.5 38.5t87.5 96.5h289z
" />
    <glyph glyph-name="d" unicode="d" horiz-adv-x="1239" 
d="M1145 1524v-998q0 -152 -68.5 -277.5t-193 -199.5t-279.5 -74q-156 0 -281 74t-193.5 199.5t-68.5 277.5q0 149 68 276t184 201t252 74q189 0 309 -123v570h271zM874 524q0 126 -79 214.5t-191 88.5q-113 0 -191.5 -86.5t-78.5 -216.5q0 -125 78.5 -211t191.5 -86
q112 0 191 87t79 210z" />
    <glyph glyph-name="e" unicode="e" horiz-adv-x="1185" 
d="M823 336h289q-47 -164 -182 -262.5t-328 -98.5q-147 0 -271.5 73.5t-197 200.5t-72.5 277t72.5 278t197 202.5t271.5 74.5q128 0 235.5 -51t182.5 -152t100 -239l-745 -313q83 -113 225 -113q70 0 130.5 31.5t92.5 91.5zM313 541l496 209q-78 94 -209 94q-119 0 -201 -85
t-86 -218z" />
    <glyph glyph-name="f" unicode="f" horiz-adv-x="638" 
d="M385 1051h190v-240h-190v-813h-270v1040q0 219 125.5 349.5t345.5 105.5v-254q-99 8 -149.5 -37t-51.5 -151z" />
    <glyph glyph-name="g" unicode="g" horiz-adv-x="1253" 
d="M1145 526v-473q0 -263 -147 -416t-400 -153q-193 0 -337.5 102t-174.5 267h295q24 -58 88 -87.5t129 -29.5q138 0 207 83.5t69 229.5v47q-122 -119 -307 -119q-137 0 -253.5 73.5t-184.5 200t-68 275.5q0 152 68.5 278.5t193.5 201.5t281 75q155 0 279.5 -75t193 -201.5
t68.5 -278.5zM874 524q0 126 -79 214.5t-191 88.5q-113 0 -191.5 -86.5t-78.5 -216.5q0 -125 78.5 -211t191.5 -86q112 0 191 87t79 210z" />
    <glyph glyph-name="h" unicode="h" horiz-adv-x="1181" 
d="M1067 616v-616h-270v616q0 22 -3.5 44.5t-15.5 52t-32 51.5t-58 37.5t-88 15.5q-91 0 -148 -56t-57 -145v-616h-272v1524h272v-525q109 82 242 82q193 0 311.5 -128t118.5 -337z" />
    <glyph glyph-name="i" unicode="i" horiz-adv-x="530" 
d="M401 1169h-272v152q0 57 40 96t97 39q56 0 95.5 -39t39.5 -96v-152zM401 1055v-1055h-270v1055h270z" />
    <glyph glyph-name="j" unicode="j" horiz-adv-x="489" 
d="M383 1169h-270v152q0 57 38.5 96t94.5 39q57 0 97 -39t40 -96v-152zM383 1055v-1184q0 -201 -114 -283t-320 -53v240q84 -8 124 21t40 106v1153h270z" />
    <glyph glyph-name="k" unicode="k" horiz-adv-x="1153" 
d="M864 528q87 -44 133.5 -126t46.5 -187v-215h-272v170q0 97 -56 162t-171 65h-150v-397h-272v1524h272v-867h150q115 0 171 66.5t56 163.5v168h272v-215q0 -104 -47 -187t-133 -125z" />
    <glyph glyph-name="l" unicode="l" horiz-adv-x="600" 
d="M106 442v1082h273v-1082q0 -110 49.5 -155t151.5 -39v-246q-226 -24 -350 97t-124 343z" />
    <glyph glyph-name="m" unicode="m" horiz-adv-x="1845" 
d="M1731 610v-610h-271v616q0 22 -3 44t-15.5 52t-32.5 52t-58 37.5t-89 15.5q-90 0 -147.5 -56t-57.5 -145v-616h-271v616q0 22 -3 44t-15 52t-32 52t-57.5 37.5t-88.5 15.5q-91 0 -148 -56t-57 -145v-616h-270v610q0 204 131 337.5t344 133.5q105 0 191.5 -39t144.5 -110
q61 70 148 109.5t188 39.5q218 0 343.5 -130t125.5 -341z" />
    <glyph glyph-name="n" unicode="n" horiz-adv-x="1173" 
d="M115 610q0 204 131.5 337.5t343.5 133.5q218 0 343.5 -130t125.5 -341v-610h-271v616q0 22 -3 44t-15.5 52t-32.5 52t-58 37.5t-89 15.5q-90 0 -147.5 -56t-57.5 -145v-616h-270v610z" />
    <glyph glyph-name="o" unicode="o" horiz-adv-x="1185" 
d="M592 1081q145 0 267 -72.5t193.5 -200.5t71.5 -282t-71.5 -281t-193.5 -198.5t-267 -71.5t-266.5 71.5t-193 198.5t-71.5 281q0 155 71.5 282.5t193 200t266.5 72.5zM592 223q109 0 184.5 85t75.5 216q0 135 -75.5 222.5t-184.5 87.5t-184.5 -87.5t-75.5 -222.5
q0 -131 75.5 -216t184.5 -85z" />
    <glyph glyph-name="p" unicode="p" horiz-adv-x="1241" 
d="M1180 530q0 -150 -67.5 -277.5t-183.5 -201.5t-253 -74q-187 0 -307 123v-569h-273v999q0 151 68.5 276.5t193.5 200t281 74.5q155 0 279.5 -74.5t193 -200t68.5 -276.5zM909 530q0 127 -78.5 212t-191.5 85q-112 0 -191 -87t-79 -210q0 -126 79 -214.5t191 -88.5
q113 0 191.5 87.5t78.5 215.5z" />
    <glyph glyph-name="q" unicode="q" horiz-adv-x="1239" 
d="M1145 530v-999h-271v569q-123 -123 -309 -123q-136 0 -252 74t-184 201.5t-68 277.5q0 151 68.5 276.5t193.5 200t281 74.5q155 0 279.5 -74.5t193 -200t68.5 -276.5zM874 530q0 123 -79 210t-191 87q-113 0 -191.5 -85t-78.5 -212q0 -128 78.5 -215.5t191.5 -87.5
q112 0 191 88.5t79 214.5z" />
    <glyph glyph-name="r" unicode="r" horiz-adv-x="704" 
d="M672 1075v-254q-128 23 -207.5 -37t-79.5 -174v-610h-270v610q0 231 150.5 363.5t406.5 101.5z" />
    <glyph glyph-name="s" unicode="s" horiz-adv-x="759" 
d="M20 0v262q121 -10 170 39q54 50 54 227q0 84 7.5 146t39.5 138.5t90 131.5q130 127 356 109v-262q-112 12 -170 -46q-16 -17 -25.5 -34.5t-18.5 -64.5t-9 -118q0 -134 -27 -242t-108 -184q-123 -118 -359 -102z" />
    <glyph glyph-name="t" unicode="t" horiz-adv-x="651" 
d="M582 248v-246q-226 -24 -349.5 97.5t-123.5 344.5v879h270v-268h190v-240h-190v-373q0 -108 50 -154t153 -40z" />
    <glyph glyph-name="u" unicode="u" horiz-adv-x="1173" 
d="M1059 446q0 -204 -131.5 -337.5t-343.5 -133.5q-218 0 -343.5 130t-125.5 341v609h270v-617q0 -22 3.5 -44t15.5 -51.5t32.5 -51.5t58.5 -37.5t89 -15.5q89 0 146.5 56t57.5 144v617h271v-609z" />
    <glyph glyph-name="v" unicode="v" horiz-adv-x="1091" 
d="M1090 1055l-398 -1055h-291l-399 1055h283l262 -787l264 787h279z" />
    <glyph glyph-name="w" unicode="w" horiz-adv-x="1845" 
d="M1731 1055v-609q0 -204 -132 -338.5t-344 -134.5q-210 0 -337 150q-62 -71 -148 -110.5t-188 -39.5q-217 0 -342 130.5t-125 342.5v609h270v-617q0 -22 3.5 -44t15.5 -51.5t32 -51.5t58 -37.5t88 -15.5q91 0 147.5 55.5t56.5 144.5v617h271v-617q0 -22 3 -44t15.5 -51.5
t32.5 -51.5t58 -37.5t89 -15.5q90 0 147.5 55.5t57.5 144.5v617h271z" />
    <glyph glyph-name="x" unicode="x" horiz-adv-x="1124" 
d="M866 528q146 -127 146 -335v-193h-271v207q0 89 -50 145t-130 56q-78 0 -128 -56t-50 -145v-207h-270v193q0 216 135 335q-135 119 -135 336v191h270v-205q0 -89 50 -145t128 -56q80 0 130 56t50 145v205h271v-191q0 -209 -146 -336z" />
    <glyph glyph-name="y" unicode="y" horiz-adv-x="1171" 
d="M1057 1055v-1098q0 -214 -128.5 -343.5t-340.5 -129.5q-174 0 -302.5 103.5t-156.5 265.5h281q12 -57 59.5 -87t118.5 -30q102 0 150 59.5t48 143.5v122q-102 -86 -241 -86q-193 0 -311.5 128t-118.5 335v617h270v-617q0 -22 3.5 -44.5t15.5 -53.5t32 -53.5t58 -39
t88 -16.5q90 0 147 58.5t57 148.5v617h271z" />
    <glyph glyph-name="z" unicode="z" horiz-adv-x="1009" 
d="M965 244v-244h-922v233l557 578h-534v244h880v-242l-547 -569h566z" />
    <glyph glyph-name="braceleft" unicode="{" horiz-adv-x="684" 
d="M639 1634v-198q-80 6 -119 -39.5t-39 -124.5v-268q0 -226 -155 -297q155 -77 155 -299v-269q0 -79 39 -124.5t119 -39.5v-200q-190 -18 -295.5 71.5t-105.5 282.5v256q0 223 -199 223v195q199 0 199 225v256q0 192 105.5 280.5t295.5 69.5z" />
    <glyph glyph-name="bar" unicode="|" horiz-adv-x="548" 
d="M410 0h-271v1524h271v-1524z" />
    <glyph glyph-name="braceright" unicode="}" horiz-adv-x="684" 
d="M645 803v-195q-199 0 -199 -223v-256q0 -193 -105.5 -282.5t-293.5 -71.5v200q78 -6 117 39.5t39 124.5v269q0 222 155 299q-155 71 -155 297v268q0 79 -39 124.5t-117 39.5v198q188 19 293.5 -69.5t105.5 -280.5v-256q0 -225 199 -225z" />
    <glyph glyph-name="asciitilde" unicode="~" horiz-adv-x="882" 
d="M801 1495q-13 -102 -68 -173t-145 -71q-66 0 -160 38t-129 38q-72 0 -92 -84h-125q15 103 71 172.5t152 69.5q65 0 157.5 -38t125.5 -38q34 0 55 20.5t33 65.5h125z" />
    <glyph glyph-name="nbspace" unicode="&#xa0;" horiz-adv-x="630" 
 />
    <glyph glyph-name="exclamdown" unicode="&#xa1;" horiz-adv-x="587" 
d="M160 1155v268h270v-268h-270zM160 0v999h270v-999h-270z" />
    <glyph glyph-name="cent" unicode="&#xa2;" horiz-adv-x="1095" 
d="M1036 381q-40 -177 -167 -284t-308 -107q-45 0 -100 10l-68 -225h-139l82 268q-127 65 -201 195.5t-74 296.5q0 234 141.5 389t358.5 155q30 0 88 -8l68 221h139l-80 -260q95 -47 162 -133.5t96 -200.5h-248q-25 63 -79 107l-179 -584q24 -4 37 -4q77 0 136.5 44
t89.5 120h245zM408 279l174 571h-17q-112 0 -185 -89t-73 -226q0 -80 27 -147t74 -109z" />
    <glyph glyph-name="sterling" unicode="&#xa3;" horiz-adv-x="1112" 
d="M1038 258v-258h-950v252q76 0 112 42.5t36 139.5v180h-148v252h148v103q0 208 117 330t331 122h299v-260h-297q-97 0 -137.5 -41t-40.5 -141v-113h313v-252h-313v-125q0 -161 -82 -231h612z" />
    <glyph glyph-name="currency" unicode="&#xa4;" horiz-adv-x="1343" 
d="M1323 350q-70 -166 -207.5 -258t-329.5 -92q-202 0 -359.5 120t-221.5 314h-154v154h121q-4 46 -4 71q0 8 1 25.5t1 26.5h-119v151h148q62 201 228.5 327t381.5 126q296 0 475 -203l-115 -184q-55 80 -146 127t-206 47q-123 0 -220 -65t-148 -175h681l-94 -151h-628
q-2 -16 -2 -52q0 -25 4 -71h551l-95 -154h-411q48 -102 135.5 -161.5t195.5 -59.5q97 0 165 33.5t118 103.5h254z" />
    <glyph glyph-name="yen" unicode="&#xa5;" horiz-adv-x="1230" 
d="M973 952h164v-151h-246l-115 -209h330v-154h-354v-438h-273v438h-354v154h330l-115 209h-246v151h164l-256 469h305l307 -608l310 608h305z" />
    <glyph glyph-name="section" unicode="&#xa7;" horiz-adv-x="1079" 
d="M883 487q61 -70 61 -184q0 -146 -110 -239t-304 -93q-188 0 -302.5 103t-114.5 262h235q0 -62 52.5 -106t134.5 -44q84 0 131 28.5t47 74.5q0 32 -17 51t-66.5 35.5t-148.5 34.5q-98 17 -167.5 38.5t-128 56t-88 87t-29.5 123.5q0 72 35 136.5t108 109.5q-61 70 -61 186
q3 137 113.5 226t287.5 89t281 -95t102 -249h-238q1 61 -42 94t-105 33q-66 0 -113.5 -25t-48.5 -73q0 -43 37.5 -64t132.5 -39q178 -37 236 -56q160 -54 202 -164q17 -45 17 -101q0 -154 -129 -236zM547 621q19 -3 56 -10.5t56 -10.5q123 25 123 96q0 19 -7.5 34.5
t-25 27.5t-37 21t-53.5 17.5t-64.5 14.5t-78.5 14q-47 8 -92 21q-59 -15 -90 -41t-31 -57q0 -51 59.5 -80t184.5 -47z" />
    <glyph glyph-name="dieresis" unicode="&#xa8;" horiz-adv-x="854" 
d="M731 1233h-225v221h225v-221zM346 1233h-225v221h225v-221z" />
    <glyph glyph-name="copyright" unicode="&#xa9;" horiz-adv-x="1603" 
d="M803 1456q150 0 287 -58.5t236 -157.5t157.5 -236t58.5 -287q0 -151 -58.5 -288.5t-157.5 -237t-236 -158t-287 -58.5q-202 0 -372.5 99.5t-270 270t-99.5 372.5q0 150 58.5 287t158 236t237 157.5t288.5 58.5zM803 168q146 0 269.5 73.5t195 200t71.5 275.5t-71.5 275.5
t-195 200t-269.5 73.5t-270 -73.5t-196.5 -200t-72.5 -275.5t72.5 -275.5t196.5 -200t270 -73.5zM1161 604q-33 -125 -130.5 -203.5t-227.5 -78.5q-160 0 -269.5 115t-109.5 280q0 164 109.5 278.5t269.5 114.5q133 0 230 -78t130 -205h-209q-48 95 -151 95q-74 0 -126 -60
t-52 -145t52 -145t126 -60q100 0 149 92h209z" />
    <glyph glyph-name="ordfeminine" unicode="&#xaa;" horiz-adv-x="825" 
d="M711 1124v-315h-152v68q-76 -82 -194 -82q-125 0 -214.5 96.5t-89.5 232.5q0 139 92.5 235.5t233.5 96.5q140 0 232 -96.5t92 -235.5zM549 1124q0 75 -47.5 128t-114.5 53q-68 0 -116 -52.5t-48 -128.5t48 -127t116 -51t115 51.5t47 126.5z" />
    <glyph glyph-name="guillemotleft" unicode="&#xab;" horiz-adv-x="866" 
d="M805 778l-205 -164l205 -168v-215l-324 281v203l324 278v-215zM47 715l324 278v-215l-205 -164l205 -168v-215l-324 281v203z" />
    <glyph glyph-name="logicalnot" unicode="&#xac;" 
d="M365 846v-268h-271v268h271z" />
    <glyph glyph-name="registered" unicode="&#xae;" horiz-adv-x="1603" 
d="M1542 717q0 -151 -58.5 -288.5t-157.5 -237t-236 -158t-287 -58.5q-202 0 -372.5 99.5t-270 270t-99.5 372.5q0 150 58.5 287t158 236t237 157.5t288.5 58.5q150 0 287 -58.5t236 -157.5t157.5 -236t58.5 -287zM1339 717q0 148 -71.5 274.5t-195 200.5t-269.5 74
q-109 0 -209 -44t-172 -117.5t-115 -175t-43 -212.5q0 -149 72.5 -275.5t196.5 -200t270 -73.5t269.5 73.5t195 200t71.5 275.5zM1022 621l141 -263h-225l-111 222h-102v-222h-201v756h361q130 0 201 -73t71 -197q0 -76 -36 -133.5t-99 -89.5zM725 758h147q39 0 59.5 23.5
t20.5 62.5q0 86 -80 86h-147v-172z" />
    <glyph glyph-name="macron" unicode="&#xaf;" horiz-adv-x="825" 
d="M82 1219v178h661v-178h-661z" />
    <glyph glyph-name="degree" unicode="&#xb0;" horiz-adv-x="755" 
d="M377 1417q130 0 222.5 -92t92.5 -221q0 -131 -92.5 -223.5t-222.5 -92.5t-222 92.5t-92 223.5q0 129 92 221t222 92zM377 944q65 0 111.5 47t46.5 113q0 64 -46.5 111t-111.5 47t-111.5 -47t-46.5 -111q0 -66 46.5 -113t111.5 -47z" />
    <glyph glyph-name="plusminus" unicode="&#xb1;" horiz-adv-x="1820" 
d="M1327 442v1082h272v-1082q0 -110 49.5 -155t151.5 -39v-246q-226 -24 -349.5 96.5t-123.5 343.5zM705 793h-320v-793h-270v1040q0 219 126 348.5t347 104.5v-242q-101 6 -151.5 -42t-51.5 -156h320q3 214 129 339.5t344 100.5v-242q-101 6 -151.5 -42t-51.5 -156h190
v-260h-190v-793h-270v793z" />
    <glyph glyph-name="twosuperior" unicode="&#xb2;" horiz-adv-x="729" 
d="M356 696h279v-155h-615l334 391q75 87 97 131t22 98q0 42 -31.5 78.5t-95.5 36.5q-67 0 -102 -42t-35 -104h-168q0 138 87 226t218 88q126 0 210.5 -82.5t84.5 -200.5q0 -91 -36 -160t-128 -172z" />
    <glyph glyph-name="threesuperior" unicode="&#xb3;" horiz-adv-x="763" 
d="M694 850q0 -142 -92.5 -235t-236.5 -93q-137 0 -228.5 77.5t-105.5 186.5h172q14 -44 55.5 -69t106.5 -25q73 0 117 43t44 115q0 73 -43.5 115.5t-120.5 48.5q-76 3 -155 -10l172 262h-291v155h592l-211 -293q104 -21 164.5 -93t60.5 -185z" />
    <glyph glyph-name="acute" unicode="&#xb4;" horiz-adv-x="854" 
d="M684 1481l-295 -289h-199l191 289h303z" />
    <glyph glyph-name="mu" unicode="&#xb5;" 
d="M365 846v-268h-271v268h271z" />
    <glyph glyph-name="paragraph" unicode="&#xb6;" horiz-adv-x="1251" 
d="M1120 1421v-1421h-213v1217h-153v-1217h-213v508h-27q-209 0 -336 127.5t-127 327.5q0 212 123.5 335t345.5 123h600z" />
    <glyph glyph-name="periodcentered" unicode="&#xb7;" 
d="M365 846v-268h-271v268h271z" />
    <glyph glyph-name="cedilla" unicode="&#xb8;" horiz-adv-x="630" 
d="M549 -268q0 -86 -68.5 -135.5t-165.5 -49.5q-130 0 -233 82l35 74q71 -39 134.5 -46.5t98.5 12.5t35 57q0 35 -27 54.5t-62.5 18t-70.5 -15.5l-78 47l84 170h134l-84 -123q38 17 84 17.5t87.5 -15t69 -54t27.5 -93.5z" />
    <glyph glyph-name="onesuperior" unicode="&#xb9;" horiz-adv-x="505" 
d="M326 1421v-880h-166v725h-103v155h269z" />
    <glyph glyph-name="ordmasculine" unicode="&#xba;" horiz-adv-x="759" 
d="M381 1456q133 0 225 -96t92 -236t-92 -234.5t-225 -94.5t-226.5 94.5t-93.5 234.5t93.5 236t226.5 96zM381 942q66 0 111 51t45 131q0 81 -45 133t-111 52t-111 -52t-45 -133q0 -80 45 -131t111 -51z" />
    <glyph glyph-name="guillemotright" unicode="&#xbb;" horiz-adv-x="864" 
d="M817 715v-203l-323 -281v215l204 168l-204 164v215zM59 993l324 -278v-203l-324 -281v215l205 168l-205 164v215z" />
    <glyph glyph-name="onequarter" unicode="&#xbc;" horiz-adv-x="1474" 
d="M160 541v725h-103v155h271v-880h-168zM1169 1421l-835 -1446h-170l833 1446h172zM1413 180h-92v-180h-158v180h-383v148l344 553h197v-553h92v-148zM1163 328v348l-217 -348h217z" />
    <glyph glyph-name="onehalf" unicode="&#xbd;" horiz-adv-x="1609" 
d="M160 541v725h-103v155h269v-880h-166zM1167 1421l-833 -1446h-172l835 1446h170zM1237 156h281v-156h-615l332 391q76 90 98.5 133.5t22.5 96.5q0 41 -32.5 77.5t-96.5 36.5q-67 0 -102 -41.5t-35 -101.5h-168q0 136 88 223.5t217 87.5q126 0 210.5 -82t84.5 -200
q0 -91 -35.5 -159.5t-128.5 -172.5z" />
    <glyph glyph-name="threequarters" unicode="&#xbe;" horiz-adv-x="1734" 
d="M367 522q-137 0 -229.5 77.5t-106.5 186.5h172q15 -44 57.5 -69t106.5 -25q73 0 117 43t44 115q0 73 -43.5 115.5t-122.5 48.5q-75 3 -153 -10l172 262h-293v155h594l-211 -293q104 -21 163.5 -93t59.5 -185q0 -141 -92.5 -234.5t-234.5 -93.5zM1427 1421l-835 -1446
h-170l833 1446h172zM1673 180h-94v-180h-158v180h-383v148l344 553h197v-553h94v-148zM1421 328v348l-217 -348h217z" />
    <glyph glyph-name="questiondown" unicode="&#xbf;" horiz-adv-x="1130" 
d="M453 1161v269h272v-269h-272zM795 438h266q0 -208 -133 -336.5t-359 -128.5q-221 0 -348 116t-127 302q0 117 62 200t178 159q70 48 99.5 95.5t29.5 112.5v48h250v-48q0 -77 -18.5 -138t-55.5 -107.5t-69 -74t-83 -63.5q-69 -51 -97 -91t-28 -93q0 -75 56 -121.5
t151 -46.5q107 0 166.5 60.5t59.5 154.5z" />
    <glyph glyph-name="Agrave" unicode="&#xc0;" horiz-adv-x="1282" 
d="M266 1829h303l191 -289h-199zM1157 942v-942h-270v397h-490v-397h-270v942q0 109 37 204.5t106 164.5q145 145 371 145q228 0 373 -145q69 -69 106 -164.5t37 -204.5zM887 657v291q0 114 -65.5 179t-180.5 65q-114 0 -179 -65t-65 -179v-291h490z" />
    <glyph glyph-name="Aacute" unicode="&#xc1;" horiz-adv-x="1282" 
d="M1044 1829l-294 -289h-199l190 289h303zM1157 942v-942h-270v397h-490v-397h-270v942q0 109 37 204.5t106 164.5q145 145 371 145q228 0 373 -145q69 -69 106 -164.5t37 -204.5zM887 657v291q0 114 -65.5 179t-180.5 65q-114 0 -179 -65t-65 -179v-291h490z" />
    <glyph glyph-name="Acircumflex" unicode="&#xc2;" horiz-adv-x="1282" 
d="M524 1540h-223l227 291h244l225 -291h-221l-127 170zM1157 942v-942h-270v397h-490v-397h-270v942q0 109 37 204.5t106 164.5q145 145 371 145q228 0 373 -145q69 -69 106 -164.5t37 -204.5zM887 657v291q0 114 -65.5 179t-180.5 65q-114 0 -179 -65t-65 -179v-291h490z
" />
    <glyph glyph-name="Atilde" unicode="&#xc3;" horiz-adv-x="1282" 
d="M1032 1806q-13 -102 -68 -172.5t-145 -70.5q-66 0 -160 37.5t-129 37.5q-72 0 -92 -84h-125q15 103 71.5 172.5t152.5 69.5q65 0 157 -38t125 -38q34 0 55 20.5t33 65.5h125zM1157 942v-942h-270v397h-490v-397h-270v942q0 109 37 204.5t106 164.5q145 145 371 145
q228 0 373 -145q69 -69 106 -164.5t37 -204.5zM887 657v291q0 114 -65.5 179t-180.5 65q-114 0 -179 -65t-65 -179v-291h490z" />
    <glyph glyph-name="Adieresis" unicode="&#xc4;" horiz-adv-x="1282" 
d="M717 1790h252v-227h-252v227zM332 1790h252v-227h-252v227zM1157 942v-942h-270v397h-490v-397h-270v942q0 109 37 204.5t106 164.5q145 145 371 145q228 0 373 -145q69 -69 106 -164.5t37 -204.5zM887 657v291q0 114 -65.5 179t-180.5 65q-114 0 -179 -65t-65 -179v-291
h490z" />
    <glyph glyph-name="Aring" unicode="&#xc5;" horiz-adv-x="1282" 
d="M653 1958q90 0 153.5 -63.5t63.5 -153.5q0 -91 -63 -154t-154 -63q-90 0 -153.5 63.5t-63.5 153.5q0 89 64 153t153 64zM1157 942v-942h-270v397h-490v-397h-270v942q0 109 37 204.5t106 164.5q145 145 371 145q228 0 373 -145q69 -69 106 -164.5t37 -204.5zM887 657v291
q0 114 -65.5 179t-180.5 65q-114 0 -179 -65t-65 -179v-291h490zM653 1640q41 0 70 30t29 71t-29 70.5t-70 29.5q-40 0 -68 -29.5t-28 -70.5t28 -71t68 -30z" />
    <glyph glyph-name="AE" unicode="&#xc6;" horiz-adv-x="1923" 
d="M1843 266v-266h-510q-199 0 -314.5 107t-129.5 292h-492v-399h-270v942q0 109 37 204.5t106 166.5q71 69 166.5 106t204.5 37q242 0 375 -166q103 131 317 131h504v-266h-502q-97 0 -137.5 -41t-40.5 -139v-131h565v-258h-565v-137q0 -99 41 -141t137 -42h508zM397 657
h490v291q0 114 -65.5 179t-180.5 65q-114 0 -179 -65t-65 -179v-291z" />
    <glyph glyph-name="Ccedilla" unicode="&#xc7;" horiz-adv-x="1449" 
d="M1110 451h291q-67 -216 -233.5 -344t-393.5 -132l-67 -96q39 17 85.5 17t87.5 -15.5t69 -54.5t28 -94q0 -85 -69 -135t-167 -50q-128 0 -231 82l35 74q70 -39 133.5 -46t99 13t35.5 56q0 35 -27 54.5t-62.5 18t-70.5 -15.5l-80 47l76 154q-252 40 -416.5 246t-164.5 487
q0 205 90.5 375t248.5 268t349 98q239 0 409.5 -126.5t237.5 -346.5h-293q-53 101 -144 161t-210 60q-114 0 -210.5 -66.5t-152 -179t-55.5 -243.5q0 -132 55.5 -245.5t152 -180t210.5 -66.5q117 0 208.5 62t145.5 164z" />
    <glyph glyph-name="Egrave" unicode="&#xc8;" horiz-adv-x="1157" 
d="M326 1829h303l190 -289h-198zM397 975v-137h576v-252h-576v-137q0 -98 42 -140.5t139 -42.5h499v-266h-502q-215 0 -331.5 122t-116.5 331v516q0 208 116 330t332 122h502v-266h-499q-97 0 -139 -41t-42 -139z" />
    <glyph glyph-name="Eacute" unicode="&#xc9;" horiz-adv-x="1157" 
d="M1020 1829l-295 -289h-199l191 289h303zM397 975v-137h576v-252h-576v-137q0 -98 42 -140.5t139 -42.5h499v-266h-502q-215 0 -331.5 122t-116.5 331v516q0 208 116 330t332 122h502v-266h-499q-97 0 -139 -41t-42 -139z" />
    <glyph glyph-name="Ecircumflex" unicode="&#xca;" horiz-adv-x="1157" 
d="M586 1540h-224l228 291h244l225 -291h-221l-127 170zM397 975v-137h576v-252h-576v-137q0 -98 42 -140.5t139 -42.5h499v-266h-502q-215 0 -331.5 122t-116.5 331v516q0 208 116 330t332 122h502v-266h-499q-97 0 -139 -41t-42 -139z" />
    <glyph glyph-name="Edieresis" unicode="&#xcb;" horiz-adv-x="1157" 
d="M745 1790h252v-227h-252v227zM360 1790h252v-227h-252v227zM397 975v-137h576v-252h-576v-137q0 -98 42 -140.5t139 -42.5h499v-266h-502q-215 0 -331.5 122t-116.5 331v516q0 208 116 330t332 122h502v-266h-499q-97 0 -139 -41t-42 -139z" />
    <glyph glyph-name="Igrave" unicode="&#xcc;" horiz-adv-x="542" 
d="M-94 1829h303l190 -289h-198zM408 1421v-1421h-271v1421h271z" />
    <glyph glyph-name="Iacute" unicode="&#xcd;" horiz-adv-x="542" 
d="M647 1829l-295 -289h-198l190 289h303zM408 1421v-1421h-271v1421h271z" />
    <glyph glyph-name="Icircumflex" unicode="&#xce;" horiz-adv-x="542" 
d="M147 1540h-223l228 291h243l226 -291h-222l-127 170zM408 1421v-1421h-271v1421h271z" />
    <glyph glyph-name="Idieresis" unicode="&#xcf;" horiz-adv-x="542" 
d="M346 1790h252v-227h-252v227zM-39 1790h252v-227h-252v227zM408 1421v-1421h-271v1421h271z" />
    <glyph glyph-name="Eth" unicode="&#xd0;" horiz-adv-x="1415" 
d="M1348 711q0 -325 -174.5 -518t-466.5 -193h-527v657h-149v252h149v512h527q296 0 468.5 -191t172.5 -519zM1077 713q0 68 -9 128t-34 122t-64.5 106t-107 72t-155.5 28h-254v-260h333v-252h-333v-405h254q77 0 138.5 21.5t100.5 60t66.5 83.5t40.5 100.5t18.5 101
t5.5 94.5z" />
    <glyph glyph-name="Ntilde" unicode="&#xd1;" horiz-adv-x="1282" 
d="M807 1747q71 0 100 86h113q-12 -107 -72 -176.5t-145 -69.5q-48 0 -95.5 23t-89.5 46t-77 23q-72 0 -101 -86h-110q11 108 70 177t145 69q48 0 95.5 -23t89.5 -46t77 -23zM641 1456q228 0 373 -145q69 -69 106 -164.5t37 -204.5v-942h-270v948q0 114 -65.5 179t-180.5 65
q-114 0 -179 -65t-65 -179v-948h-270v942q0 109 37 204.5t106 164.5q145 145 371 145z" />
    <glyph glyph-name="Ograve" unicode="&#xd2;" horiz-adv-x="1525" 
d="M360 1829h304l190 -289h-199zM764 1456q197 0 356.5 -98.5t248.5 -267.5t89 -373q0 -205 -89 -374.5t-248.5 -268.5t-356.5 -99q-198 0 -358 99t-249 268.5t-89 374.5q0 204 89 373t249 267.5t358 98.5zM764 231q174 0 298 143t124 343q0 198 -124 340.5t-298 142.5
q-116 0 -213.5 -65.5t-154 -176.5t-56.5 -241q0 -200 124 -343t300 -143z" />
    <glyph glyph-name="Oacute" unicode="&#xd3;" horiz-adv-x="1525" 
d="M1153 1829l-295 -289h-199l191 289h303zM764 1456q197 0 356.5 -98.5t248.5 -267.5t89 -373q0 -205 -89 -374.5t-248.5 -268.5t-356.5 -99q-198 0 -358 99t-249 268.5t-89 374.5q0 204 89 373t249 267.5t358 98.5zM764 231q174 0 298 143t124 343q0 198 -124 340.5
t-298 142.5q-116 0 -213.5 -65.5t-154 -176.5t-56.5 -241q0 -200 124 -343t300 -143z" />
    <glyph glyph-name="Ocircumflex" unicode="&#xd4;" horiz-adv-x="1525" 
d="M639 1540h-223l227 291h244l225 -291h-221l-127 170zM764 1456q197 0 356.5 -98.5t248.5 -267.5t89 -373q0 -205 -89 -374.5t-248.5 -268.5t-356.5 -99q-198 0 -358 99t-249 268.5t-89 374.5q0 204 89 373t249 267.5t358 98.5zM764 231q174 0 298 143t124 343
q0 198 -124 340.5t-298 142.5q-116 0 -213.5 -65.5t-154 -176.5t-56.5 -241q0 -200 124 -343t300 -143z" />
    <glyph glyph-name="Otilde" unicode="&#xd5;" horiz-adv-x="1525" 
d="M1143 1806q-13 -102 -68 -172.5t-145 -70.5q-66 0 -160 37.5t-129 37.5q-72 0 -92 -84h-125q15 103 71 172.5t152 69.5q65 0 157.5 -38t125.5 -38q34 0 55 20.5t33 65.5h125zM764 1456q197 0 356.5 -98.5t248.5 -267.5t89 -373q0 -205 -89 -374.5t-248.5 -268.5
t-356.5 -99q-198 0 -358 99t-249 268.5t-89 374.5q0 204 89 373t249 267.5t358 98.5zM764 231q174 0 298 143t124 343q0 198 -124 340.5t-298 142.5q-116 0 -213.5 -65.5t-154 -176.5t-56.5 -241q0 -200 124 -343t300 -143z" />
    <glyph glyph-name="Odieresis" unicode="&#xd6;" horiz-adv-x="1525" 
d="M838 1790h252v-227h-252v227zM453 1790h252v-227h-252v227zM764 1456q197 0 356.5 -98.5t248.5 -267.5t89 -373q0 -205 -89 -374.5t-248.5 -268.5t-356.5 -99q-198 0 -358 99t-249 268.5t-89 374.5q0 204 89 373t249 267.5t358 98.5zM764 231q174 0 298 143t124 343
q0 198 -124 340.5t-298 142.5q-116 0 -213.5 -65.5t-154 -176.5t-56.5 -241q0 -200 124 -343t300 -143z" />
    <glyph glyph-name="multiply" unicode="&#xd7;" horiz-adv-x="1052" 
d="M891 10l-365 365l-364 -365l-142 142l365 366l-365 363l142 141l364 -365l365 365l141 -141l-364 -363l364 -366z" />
    <glyph glyph-name="Oslash" unicode="&#xd8;" horiz-adv-x="1525" 
d="M1325 1163q133 -198 133 -446q0 -205 -88.5 -374.5t-248 -268.5t-357.5 -99q-257 0 -447 166l-143 -145l-106 106l147 150q-145 197 -145 465q0 204 88.5 373t248 267.5t357.5 98.5q273 0 463 -180l143 143l105 -104zM412 449l626 634q-117 117 -274 117q-114 0 -212 -65
t-155 -176.5t-57 -241.5q0 -143 72 -268zM1126 963l-620 -629q118 -103 258 -103q114 0 212 65.5t155 177.5t57 243q0 132 -62 246z" />
    <glyph glyph-name="Ugrave" unicode="&#xd9;" horiz-adv-x="1282" 
d="M256 1829h303l191 -289h-199zM641 -25q-108 0 -204 37.5t-167 106.5q-143 146 -143 370v932h270v-936q0 -115 65 -180t179 -65q116 0 181 65t65 180v936h270v-932q0 -224 -143 -370q-147 -144 -373 -144z" />
    <glyph glyph-name="Uacute" unicode="&#xda;" horiz-adv-x="1282" 
d="M1067 1829l-295 -289h-199l191 289h303zM641 -25q-108 0 -204 37.5t-167 106.5q-143 146 -143 370v932h270v-936q0 -115 65 -180t179 -65q116 0 181 65t65 180v936h270v-932q0 -224 -143 -370q-147 -144 -373 -144z" />
    <glyph glyph-name="Ucircumflex" unicode="&#xdb;" horiz-adv-x="1282" 
d="M532 1540h-223l228 291h243l226 -291h-222l-127 170zM641 -25q-108 0 -204 37.5t-167 106.5q-143 146 -143 370v932h270v-936q0 -115 65 -180t179 -65q116 0 181 65t65 180v936h270v-932q0 -224 -143 -370q-147 -144 -373 -144z" />
    <glyph glyph-name="Udieresis" unicode="&#xdc;" horiz-adv-x="1282" 
d="M717 1790h252v-227h-252v227zM332 1790h252v-227h-252v227zM641 -25q-108 0 -204 37.5t-167 106.5q-143 146 -143 370v932h270v-936q0 -115 65 -180t179 -65q116 0 181 65t65 180v936h270v-932q0 -224 -143 -370q-147 -144 -373 -144z" />
    <glyph glyph-name="Yacute" unicode="&#xdd;" horiz-adv-x="1255" 
d="M1022 1829l-287 -297h-196l190 297h293zM1143 1421v-393q0 -110 -37.5 -206t-106.5 -165q-99 -99 -235 -129v-528h-272v528q-138 31 -236 129q-69 69 -106 165t-37 206v393h272v-399q0 -116 64.5 -180t179.5 -64q114 0 178.5 64.5t64.5 179.5v399h271z" />
    <glyph glyph-name="Thorn" unicode="&#xde;" horiz-adv-x="1249" 
d="M1198 778q0 -202 -127.5 -329t-337.5 -127h-332v-322h-270v1421h270v-184h328q221 0 345 -124t124 -335zM928 778q0 105 -52.5 156t-148.5 51h-326v-414h326q96 0 148.5 51t52.5 156z" />
    <glyph glyph-name="germandbls" unicode="&#xdf;" horiz-adv-x="1208" 
d="M1147 440q0 -215 -126 -341t-335 -126q-101 0 -192 37v252q74 -31 176 -31q98 0 152.5 59.5t54.5 153.5q0 89 -60.5 144t-154.5 55h-168v252h118q72 0 123 46.5t51 139.5q0 86 -51 136.5t-141 50.5q-87 0 -143 -61t-56 -156v-1051h-272v1059q0 192 133.5 328.5
t335.5 136.5q204 0 334.5 -123.5t130.5 -298.5q0 -185 -135 -295q109 -49 167 -145.5t58 -221.5z" />
    <glyph glyph-name="agrave" unicode="&#xe0;" horiz-adv-x="1259" 
d="M211 1481h301l190 -289h-198zM1145 526v-526h-256v111q-122 -134 -322 -134q-137 0 -253.5 73.5t-184.5 200t-68 275.5q0 152 68.5 278.5t193.5 201.5t281 75q155 0 279.5 -75t193 -201.5t68.5 -278.5zM874 524q0 126 -79 214.5t-191 88.5q-113 0 -191.5 -86.5
t-78.5 -216.5q0 -125 78.5 -211t191.5 -86q112 0 191 87t79 210z" />
    <glyph glyph-name="aacute" unicode="&#xe1;" horiz-adv-x="1259" 
d="M1004 1481l-295 -289h-199l190 289h304zM1145 526v-526h-256v111q-122 -134 -322 -134q-137 0 -253.5 73.5t-184.5 200t-68 275.5q0 152 68.5 278.5t193.5 201.5t281 75q155 0 279.5 -75t193 -201.5t68.5 -278.5zM874 524q0 126 -79 214.5t-191 88.5q-113 0 -191.5 -86.5
t-78.5 -216.5q0 -125 78.5 -211t191.5 -86q112 0 191 87t79 210z" />
    <glyph glyph-name="acircumflex" unicode="&#xe2;" horiz-adv-x="1259" 
d="M733 1192l-127 170l-125 -170h-223l227 291h242l227 -291h-221zM1145 526v-526h-256v111q-122 -134 -322 -134q-137 0 -253.5 73.5t-184.5 200t-68 275.5q0 152 68.5 278.5t193.5 201.5t281 75q155 0 279.5 -75t193 -201.5t68.5 -278.5zM874 524q0 126 -79 214.5
t-191 88.5q-113 0 -191.5 -86.5t-78.5 -216.5q0 -125 78.5 -211t191.5 -86q112 0 191 87t79 210z" />
    <glyph glyph-name="atilde" unicode="&#xe3;" horiz-adv-x="1259" 
d="M985 1458q-13 -103 -68.5 -173.5t-146.5 -70.5q-64 0 -158 38t-129 38q-72 0 -92 -84h-127q15 103 72 173.5t153 70.5q65 0 156.5 -39t124.5 -39q35 0 55.5 20t32.5 66h127zM1145 526v-526h-256v111q-122 -134 -322 -134q-137 0 -253.5 73.5t-184.5 200t-68 275.5
q0 152 68.5 278.5t193.5 201.5t281 75q155 0 279.5 -75t193 -201.5t68.5 -278.5zM874 524q0 126 -79 214.5t-191 88.5q-113 0 -191.5 -86.5t-78.5 -216.5q0 -125 78.5 -211t191.5 -86q112 0 191 87t79 210z" />
    <glyph glyph-name="adieresis" unicode="&#xe4;" horiz-adv-x="1259" 
d="M676 1440h250v-228h-250v228zM291 1440h250v-228h-250v228zM1145 526v-526h-256v111q-122 -134 -322 -134q-137 0 -253.5 73.5t-184.5 200t-68 275.5q0 152 68.5 278.5t193.5 201.5t281 75q155 0 279.5 -75t193 -201.5t68.5 -278.5zM874 524q0 126 -79 214.5t-191 88.5
q-113 0 -191.5 -86.5t-78.5 -216.5q0 -125 78.5 -211t191.5 -86q112 0 191 87t79 210z" />
    <glyph glyph-name="aring" unicode="&#xe5;" horiz-adv-x="1259" 
d="M623 1614q91 0 154 -63t63 -154q0 -90 -63.5 -153.5t-153.5 -63.5q-89 0 -153 64t-64 153q0 90 63.5 153.5t153.5 63.5zM1145 526v-526h-256v111q-122 -134 -322 -134q-137 0 -253.5 73.5t-184.5 200t-68 275.5q0 152 68.5 278.5t193.5 201.5t281 75q155 0 279.5 -75
t193 -201.5t68.5 -278.5zM874 524q0 126 -79 214.5t-191 88.5q-113 0 -191.5 -86.5t-78.5 -216.5q0 -125 78.5 -211t191.5 -86q112 0 191 87t79 210zM623 1296q41 0 69.5 29.5t28.5 71.5q0 43 -28.5 72.5t-69.5 29.5q-40 0 -68.5 -29.5t-28.5 -72.5q0 -41 28.5 -71t68.5 -30
z" />
    <glyph glyph-name="ae" unicode="&#xe6;" horiz-adv-x="2009" 
d="M1642 336h287q-46 -162 -181.5 -261.5t-315.5 -99.5q-186 0 -318 119v-94h-225v100q-123 -123 -311 -123q-141 0 -260 73.5t-188 200t-69 275.5q0 152 68.5 278.5t193 201.5t279.5 75q128 0 234 -53t176 -147q70 93 176.5 146.5t228.5 53.5q198 0 344 -117.5t183 -326.5
l-742 -311q79 -105 215 -105q68 0 128 29.5t97 85.5zM1141 553l481 201q-73 82 -205 82q-110 0 -189.5 -78.5t-86.5 -204.5zM874 526q0 120 -80 206.5t-192 86.5q-110 0 -190 -86.5t-80 -206.5q0 -119 79.5 -203.5t190.5 -84.5q113 0 192.5 84t79.5 204z" />
    <glyph glyph-name="ccedilla" unicode="&#xe7;" horiz-adv-x="1169" 
d="M621 -27l-50 -79q34 15 74.5 11.5t75.5 -17.5t58.5 -48.5t23.5 -81.5q0 -76 -51.5 -120t-137.5 -44q-52 0 -105 24.5t-91 62.5l37 63q58 -55 145 -55q37 0 61.5 17t24.5 48q0 28 -22.5 48t-59.5 20q-41 0 -72 -27l-73 49l69 136q-206 28 -336.5 181.5t-130.5 362.5
q0 152 69.5 279.5t195 202.5t280.5 75q191 0 327 -101.5t183 -279.5h-291q-31 55 -89 87t-130 32q-112 0 -191 -86.5t-79 -208.5q0 -119 79 -203.5t191 -84.5q74 0 132 32t89 88h289q-44 -176 -175.5 -277t-319.5 -106z" />
    <glyph glyph-name="egrave" unicode="&#xe8;" horiz-adv-x="1185" 
d="M221 1481h301l191 -289h-199zM823 336h289q-47 -164 -182 -262.5t-328 -98.5q-147 0 -271.5 73.5t-197 200.5t-72.5 277t72.5 278t197 202.5t271.5 74.5q128 0 235.5 -51t182.5 -152t100 -239l-745 -313q83 -113 225 -113q70 0 130.5 31.5t92.5 91.5zM313 541l496 209
q-78 94 -209 94q-119 0 -201 -85t-86 -218z" />
    <glyph glyph-name="eacute" unicode="&#xe9;" horiz-adv-x="1185" 
d="M1004 1481l-295 -289h-199l190 289h304zM823 336h289q-47 -164 -182 -262.5t-328 -98.5q-147 0 -271.5 73.5t-197 200.5t-72.5 277t72.5 278t197 202.5t271.5 74.5q128 0 235.5 -51t182.5 -152t100 -239l-745 -313q83 -113 225 -113q70 0 130.5 31.5t92.5 91.5zM313 541
l496 209q-78 94 -209 94q-119 0 -201 -85t-86 -218z" />
    <glyph glyph-name="ecircumflex" unicode="&#xea;" horiz-adv-x="1185" 
d="M727 1192l-127 170l-125 -170h-223l227 291h242l227 -291h-221zM823 336h289q-47 -164 -182 -262.5t-328 -98.5q-147 0 -271.5 73.5t-197 200.5t-72.5 277t72.5 278t197 202.5t271.5 74.5q128 0 235.5 -51t182.5 -152t100 -239l-745 -313q83 -113 225 -113
q70 0 130.5 31.5t92.5 91.5zM313 541l496 209q-78 94 -209 94q-119 0 -201 -85t-86 -218z" />
    <glyph glyph-name="edieresis" unicode="&#xeb;" horiz-adv-x="1185" 
d="M668 1440h250v-228h-250v228zM283 1440h249v-228h-249v228zM823 336h289q-47 -164 -182 -262.5t-328 -98.5q-147 0 -271.5 73.5t-197 200.5t-72.5 277t72.5 278t197 202.5t271.5 74.5q128 0 235.5 -51t182.5 -152t100 -239l-745 -313q83 -113 225 -113q70 0 130.5 31.5
t92.5 91.5zM313 541l496 209q-78 94 -209 94q-119 0 -201 -85t-86 -218z" />
    <glyph glyph-name="igrave" unicode="&#xec;" horiz-adv-x="530" 
d="M-94 1481h301l190 -289h-198zM399 1055v-1055h-270v1055h270z" />
    <glyph glyph-name="iacute" unicode="&#xed;" horiz-adv-x="530" 
d="M635 1481l-295 -289h-199l191 289h303zM399 1055v-1055h-270v1055h270z" />
    <glyph glyph-name="icircumflex" unicode="&#xee;" horiz-adv-x="530" 
d="M393 1192l-127 170l-125 -170h-223l227 291h242l227 -291h-221zM399 1055v-1055h-270v1055h270z" />
    <glyph glyph-name="idieresis" unicode="&#xef;" horiz-adv-x="530" 
d="M338 1440h250v-228h-250v228zM-47 1440h250v-228h-250v228zM399 1055v-1055h-270v1055h270z" />
    <glyph glyph-name="eth" unicode="&#xf0;" horiz-adv-x="1202" 
d="M1118 526q0 -242 -152 -399.5t-372 -157.5q-108 0 -205 42t-167.5 113.5t-112 172.5t-41.5 215q0 102 30 191.5t80.5 153.5t115 110.5t134 69t137.5 22.5q94 0 172 -35q-78 114 -188 197l-152 -111l-112 70l155 112q-78 44 -141 64l201 151q76 -37 133 -73l127 94
l112 -70l-135 -100q185 -154 283 -373t98 -459zM852 512q0 131 -75 217t-183 86t-183 -86t-75 -217q0 -130 75 -214.5t183 -84.5t183 84.5t75 214.5z" />
    <glyph glyph-name="ntilde" unicode="&#xf1;" horiz-adv-x="1173" 
d="M969 1458q-13 -103 -68.5 -173.5t-146.5 -70.5q-64 0 -158 38t-129 38q-72 0 -92 -84h-127q15 103 72 173.5t153 70.5q65 0 156.5 -39t124.5 -39q35 0 55.5 20t32.5 66h127zM115 610q0 204 131.5 337.5t343.5 133.5q218 0 343.5 -130t125.5 -341v-610h-271v616
q0 22 -3 44t-15.5 52t-32.5 52t-58 37.5t-89 15.5q-90 0 -147.5 -56t-57.5 -145v-616h-270v610z" />
    <glyph glyph-name="ograve" unicode="&#xf2;" horiz-adv-x="1185" 
d="M207 1481h301l190 -289h-198zM592 1081q145 0 267 -72.5t193.5 -200.5t71.5 -282t-71.5 -281t-193.5 -198.5t-267 -71.5t-266.5 71.5t-193 198.5t-71.5 281q0 155 71.5 282.5t193 200t266.5 72.5zM592 223q109 0 184.5 85t75.5 216q0 135 -75.5 222.5t-184.5 87.5
t-184.5 -87.5t-75.5 -222.5q0 -131 75.5 -216t184.5 -85z" />
    <glyph glyph-name="oacute" unicode="&#xf3;" horiz-adv-x="1185" 
d="M995 1481l-295 -289h-198l190 289h303zM592 1081q145 0 267 -72.5t193.5 -200.5t71.5 -282t-71.5 -281t-193.5 -198.5t-267 -71.5t-266.5 71.5t-193 198.5t-71.5 281q0 155 71.5 282.5t193 200t266.5 72.5zM592 223q109 0 184.5 85t75.5 216q0 135 -75.5 222.5
t-184.5 87.5t-184.5 -87.5t-75.5 -222.5q0 -131 75.5 -216t184.5 -85z" />
    <glyph glyph-name="ocircumflex" unicode="&#xf4;" horiz-adv-x="1185" 
d="M727 1192l-127 170l-125 -170h-223l227 291h242l227 -291h-221zM592 1081q145 0 267 -72.5t193.5 -200.5t71.5 -282t-71.5 -281t-193.5 -198.5t-267 -71.5t-266.5 71.5t-193 198.5t-71.5 281q0 155 71.5 282.5t193 200t266.5 72.5zM592 223q109 0 184.5 85t75.5 216
q0 135 -75.5 222.5t-184.5 87.5t-184.5 -87.5t-75.5 -222.5q0 -131 75.5 -216t184.5 -85z" />
    <glyph glyph-name="otilde" unicode="&#xf5;" horiz-adv-x="1185" 
d="M952 1458q-13 -103 -68.5 -173.5t-146.5 -70.5q-64 0 -157.5 38t-128.5 38q-73 0 -93 -84h-127q15 103 72.5 173.5t153.5 70.5q65 0 156 -39t124 -39q35 0 55.5 20t32.5 66h127zM592 1081q145 0 267 -72.5t193.5 -200.5t71.5 -282t-71.5 -281t-193.5 -198.5t-267 -71.5
t-266.5 71.5t-193 198.5t-71.5 281q0 155 71.5 282.5t193 200t266.5 72.5zM592 223q109 0 184.5 85t75.5 216q0 135 -75.5 222.5t-184.5 87.5t-184.5 -87.5t-75.5 -222.5q0 -131 75.5 -216t184.5 -85z" />
    <glyph glyph-name="odieresis" unicode="&#xf6;" horiz-adv-x="1185" 
d="M662 1440h249v-228h-249v228zM276 1440h250v-228h-250v228zM592 1081q145 0 267 -72.5t193.5 -200.5t71.5 -282t-71.5 -281t-193.5 -198.5t-267 -71.5t-266.5 71.5t-193 198.5t-71.5 281q0 155 71.5 282.5t193 200t266.5 72.5zM592 223q109 0 184.5 85t75.5 216
q0 135 -75.5 222.5t-184.5 87.5t-184.5 -87.5t-75.5 -222.5q0 -131 75.5 -216t184.5 -85z" />
    <glyph glyph-name="divide" unicode="&#xf7;" 
d="M365 846v-268h-271v268h271z" />
    <glyph glyph-name="oslash" unicode="&#xf8;" horiz-adv-x="1185" 
d="M1124 524q0 -149 -71 -276t-193 -201t-266 -74q-185 0 -330 119l-94 -94l-102 102l96 99q-103 150 -103 325q0 113 42 216t113.5 178t170 119t207.5 44q182 0 326 -118l94 94l104 -101l-98 -100q104 -145 104 -332zM356 393l379 383q-66 47 -141 47q-110 0 -188 -87.5
t-78 -211.5q0 -70 28 -131zM858 524q0 74 -31 138l-378 -383q68 -48 145 -48q109 0 186.5 86.5t77.5 206.5z" />
    <glyph glyph-name="ugrave" unicode="&#xf9;" horiz-adv-x="1173" 
d="M213 1481h301l191 -289h-199zM1059 446q0 -204 -131.5 -337.5t-343.5 -133.5q-218 0 -343.5 130t-125.5 341v609h270v-617q0 -22 3.5 -44t15.5 -51.5t32.5 -51.5t58.5 -37.5t89 -15.5q89 0 146.5 56t57.5 144v617h271v-609z" />
    <glyph glyph-name="uacute" unicode="&#xfa;" horiz-adv-x="1173" 
d="M995 1481l-295 -289h-198l190 289h303zM1059 446q0 -204 -131.5 -337.5t-343.5 -133.5q-218 0 -343.5 130t-125.5 341v609h270v-617q0 -22 3.5 -44t15.5 -51.5t32.5 -51.5t58.5 -37.5t89 -15.5q89 0 146.5 56t57.5 144v617h271v-609z" />
    <glyph glyph-name="ucircumflex" unicode="&#xfb;" horiz-adv-x="1173" 
d="M713 1192l-127 170l-125 -170h-223l227 291h242l227 -291h-221zM1059 446q0 -204 -131.5 -337.5t-343.5 -133.5q-218 0 -343.5 130t-125.5 341v609h270v-617q0 -22 3.5 -44t15.5 -51.5t32.5 -51.5t58.5 -37.5t89 -15.5q89 0 146.5 56t57.5 144v617h271v-609z" />
    <glyph glyph-name="udieresis" unicode="&#xfc;" horiz-adv-x="1173" 
d="M659 1440h250v-228h-250v228zM274 1440h250v-228h-250v228zM1059 446q0 -204 -131.5 -337.5t-343.5 -133.5q-218 0 -343.5 130t-125.5 341v609h270v-617q0 -22 3.5 -44t15.5 -51.5t32.5 -51.5t58.5 -37.5t89 -15.5q89 0 146.5 56t57.5 144v617h271v-609z" />
    <glyph glyph-name="yacute" unicode="&#xfd;" horiz-adv-x="1173" 
d="M956 1528l-284 -295h-201l191 295h294zM1059 1055v-1098q0 -211 -131 -342t-340 -131q-174 0 -302.5 103.5t-156.5 265.5h281q15 -51 62 -80t116 -29q102 0 151 60.5t49 144.5v112q-103 -86 -243 -86q-194 0 -312 127t-118 336v617h270v-617q0 -22 3.5 -44t15.5 -51.5
t32.5 -51.5t58.5 -37.5t89 -15.5q90 0 147 55.5t57 144.5v617h271z" />
    <glyph glyph-name="thorn" unicode="&#xfe;" horiz-adv-x="1277" 
d="M1217 530q0 -233 -147 -393t-355 -160q-184 0 -309 125v-571h-273v1890h273v-465q126 123 309 123q102 0 194.5 -42.5t160 -115t107.5 -175t40 -216.5zM946 530q0 125 -78.5 211t-191.5 86q-112 0 -191 -87t-79 -210q0 -125 79 -213t191 -88q113 0 191.5 86.5t78.5 214.5
z" />
    <glyph glyph-name="ydieresis" unicode="&#xff;" horiz-adv-x="1171" 
d="M649 1440h250v-228h-250v228zM264 1440h250v-228h-250v228zM1057 1055v-1098q0 -214 -128.5 -343.5t-340.5 -129.5q-174 0 -302.5 103.5t-156.5 265.5h281q12 -57 59.5 -87t118.5 -30q102 0 150 59.5t48 143.5v122q-102 -86 -241 -86q-193 0 -311.5 128t-118.5 335v617
h270v-617q0 -22 3.5 -44.5t15.5 -53.5t32 -53.5t58 -39t88 -16.5q90 0 147 58.5t57 148.5v617h271z" />
    <glyph glyph-name="dotlessi" unicode="&#x131;" horiz-adv-x="530" 
d="M399 1055v-1055h-270v1055h270z" />
    <glyph glyph-name="Lslash" unicode="&#x141;" horiz-adv-x="1222" 
d="M1188 252v-252h-979v532l-178 -106v192l178 107v696h270v-532l277 166v-193l-277 -166v-444h709z" />
    <glyph glyph-name="lslash" unicode="&#x142;" horiz-adv-x="1122" 
d="M1087 266v-266h-428q-216 0 -332 120.5t-116 328.5v83l-176 -106v192l176 107v696h270v-532l279 166v-193l-279 -166v-243q0 -99 42.5 -143t138.5 -44h425z" />
    <glyph glyph-name="OE" unicode="&#x152;" horiz-adv-x="2224" 
d="M2144 266v-266h-510q-271 0 -385 195q-191 -220 -485 -220q-199 0 -359 99t-248.5 268.5t-88.5 374.5q0 204 88.5 373t248.5 267.5t359 98.5q300 0 489 -221q114 186 381 186h502v-266h-502q-97 0 -136.5 -41t-39.5 -139v-131h565v-258h-565v-137q0 -99 40 -141t136 -42
h510zM1188 715q-3 200 -126.5 342.5t-297.5 142.5q-176 0 -301 -142t-125 -341q0 -130 57 -242t155 -178t214 -66q114 0 211.5 65.5t154 177t58.5 241.5z" />
    <glyph glyph-name="oe" unicode="&#x153;" horiz-adv-x="1970" 
d="M979 889q75 91 179 141.5t222 50.5q197 0 343 -118.5t182 -327.5l-742 -309q79 -105 215 -105q70 0 129 29.5t97 85.5h286q-51 -165 -189 -264t-319 -99q-118 0 -223 51t-178 140q-69 -90 -169.5 -140.5t-219.5 -50.5q-144 0 -266.5 74t-193.5 201t-71 276q0 113 42 216
t113 178t169.5 119t206.5 44q120 0 220 -50.5t167 -141.5zM1102 553l481 201q-70 82 -205 82q-110 0 -188.5 -78t-87.5 -205zM592 238q109 0 185.5 83.5t76.5 202.5q0 122 -76.5 208.5t-185.5 86.5q-107 0 -183.5 -86.5t-76.5 -208.5q0 -118 76.5 -202t183.5 -84z" />
    <glyph glyph-name="Scaron" unicode="&#x160;" horiz-adv-x="1327" 
d="M1010 1882l-226 -291h-243l-228 291h224l125 -170l126 170h222zM659 1456q134 0 241.5 -41t172 -108.5t98 -148.5t33.5 -167h-270q0 93 -74.5 154t-200.5 61q-116 0 -196 -43.5t-80 -122.5q0 -69 71 -107.5t242 -72.5q112 -22 188.5 -43t150 -55.5t117 -78.5t69.5 -109.5
t26 -151.5q0 -205 -160.5 -327t-429.5 -122q-107 0 -208 30.5t-185.5 89.5t-136 157t-51.5 221h270q0 -60 28.5 -109t74.5 -78.5t99.5 -45t108.5 -15.5q61 0 116 11t102 33t74.5 60t27.5 87q0 71 -73.5 117t-262.5 81q-64 12 -112.5 23.5t-106 30.5t-100 41t-84 54.5
t-67.5 72t-42 93t-16 117.5q0 184 148.5 298t397.5 114z" />
    <glyph glyph-name="scaron" unicode="&#x161;" horiz-adv-x="1077" 
d="M905 1516l-225 -289h-244l-227 289h223l125 -168l127 168h221zM1014 332q0 -157 -130.5 -258t-332.5 -101t-338.5 100t-161.5 271h275q27 -59 92.5 -91t132.5 -32q83 0 142 27.5t59 66.5q0 45 -48 69.5t-184 45.5q-50 8 -84.5 14.5t-84 19t-84 27.5t-72.5 39t-61 53
t-38.5 70t-15.5 90q0 64 28 123t82 108t142 78t198 29q181 0 306 -90t151 -239h-280q-14 35 -60.5 61.5t-116.5 26.5q-88 0 -137 -26t-49 -60q0 -37 52.5 -56t166.5 -36q73 -12 125.5 -23.5t107.5 -30t91.5 -42t67 -56.5t45 -77.5t14.5 -100.5z" />
    <glyph glyph-name="Ydieresis" unicode="&#x178;" horiz-adv-x="1255" 
d="M707 1790h251v-227h-251v227zM322 1790h251v-227h-251v227zM1143 1421v-393q0 -110 -37.5 -206t-106.5 -165q-99 -99 -235 -129v-528h-272v528q-138 31 -236 129q-69 69 -106 165t-37 206v393h272v-399q0 -116 64.5 -180t179.5 -64q114 0 178.5 64.5t64.5 179.5v399h271z
" />
    <glyph glyph-name="Zcaron" unicode="&#x17d;" horiz-adv-x="1126" 
d="M920 1882l-228 -291h-241l-228 291h221l127 -170l125 170h224zM1073 252v-252h-1022v242l682 921v6h-659v252h981v-241l-682 -922v-6h700z" />
    <glyph glyph-name="zcaron" unicode="&#x17e;" horiz-adv-x="1009" 
d="M862 1516l-225 -289h-244l-227 289h223l125 -168l127 168h221zM414 254h551v-254h-922v233l541 562v6h-518v254h880v-242l-532 -553v-6z" />
    <glyph glyph-name="florin" unicode="&#x192;" horiz-adv-x="962" 
d="M954 1399v-225q-118 30 -190 -4.5t-98 -155.5l-17 -82h174v-152h-205l-96 -446q-42 -204 -179 -285.5t-335 -25.5v225q121 -28 192.5 6t96.5 156l78 370h-172v152h205l32 155q44 206 181 287.5t333 24.5z" />
    <glyph glyph-name="circumflex" unicode="&#x2c6;" horiz-adv-x="854" 
d="M549 1192l-127 170l-125 -170h-223l227 291h242l227 -291h-221z" />
    <glyph glyph-name="caron" unicode="&#x2c7;" horiz-adv-x="860" 
d="M778 1483l-227 -291h-242l-227 291h221l127 -170l125 170h223z" />
    <glyph glyph-name="breve" unicode="&#x2d8;" horiz-adv-x="798" 
d="M717 1481q-9 -119 -96 -195t-222 -76q-134 0 -221 76t-96 195h141q15 -56 61 -89.5t115 -33.5t115.5 34t60.5 89h142z" />
    <glyph glyph-name="dotaccent" unicode="&#x2d9;" horiz-adv-x="415" 
d="M82 1440h252v-228h-252v228z" />
    <glyph glyph-name="ring" unicode="&#x2da;" horiz-adv-x="604" 
d="M303 1634q89 0 153 -64t64 -155q0 -89 -64 -153t-153 -64t-153 64t-64 153q0 91 64 155t153 64zM303 1315q40 0 69 29.5t29 70.5t-29 71t-69 30t-69 -30t-29 -71t29 -70.5t69 -29.5z" />
    <glyph glyph-name="ogonek" unicode="&#x2db;" horiz-adv-x="509" 
d="M428 -276v-127q-85 -57 -185.5 -48.5t-140.5 82.5q-20 35 -20.5 81.5t18.5 96.5t66 101t115 90h139q-103 -67 -148 -139.5t-18 -124.5q17 -36 70 -39.5t104 27.5z" />
    <glyph glyph-name="tilde" unicode="&#x2dc;" horiz-adv-x="854" 
d="M784 1458q-13 -103 -68.5 -173.5t-146.5 -70.5q-64 0 -157.5 38t-128.5 38q-73 0 -93 -84h-127q15 103 72.5 173.5t153.5 70.5q65 0 156 -39t124 -39q35 0 55.5 20t32.5 66h127z" />
    <glyph glyph-name="hungarumlaut" unicode="&#x2dd;" horiz-adv-x="933" 
d="M852 1481l-225 -289h-168l135 289h258zM477 1481l-227 -289h-168l135 289h260z" />
    <glyph glyph-name="Delta" unicode="&#x394;" 
d="M365 846v-268h-271v268h271z" />
    <glyph glyph-name="Omega" unicode="&#x3a9;" 
d="M365 846v-268h-271v268h271z" />
    <glyph glyph-name="pi" unicode="&#x3c0;" 
d="M365 846v-268h-271v268h271z" />
    <glyph glyph-name="endash" unicode="&#x2013;" horiz-adv-x="1241" 
d="M63 442v252h1115v-252h-1115z" />
    <glyph glyph-name="emdash" unicode="&#x2014;" horiz-adv-x="1947" 
d="M63 442v252h1821v-252h-1821z" />
    <glyph glyph-name="quoteleft" unicode="&#x2018;" horiz-adv-x="415" 
d="M346 1120v-258h-276v277q0 126 68 199t181 85v-114q-118 -27 -118 -164v-25h145z" />
    <glyph glyph-name="quoteright" unicode="&#x2019;" horiz-adv-x="415" 
d="M346 1421v-276q0 -125 -68.5 -198.5t-181.5 -84.5v115q59 12 89 55t30 109v22h-145v258h276z" />
    <glyph glyph-name="quotesinglbase" unicode="&#x201a;" horiz-adv-x="409" 
d="M340 268v-299q0 -128 -67.5 -191.5t-178.5 -60.5v99q59 3 90 42t31 105v37h-145v268h270z" />
    <glyph glyph-name="quotedblleft" unicode="&#x201c;" horiz-adv-x="872" 
d="M803 1120v-258h-277v277q0 126 68.5 198.5t181.5 85.5v-114q-119 -27 -119 -164v-25h146zM201 1120h145v-258h-276v277q0 126 68 199t181 85v-114q-118 -27 -118 -164v-25z" />
    <glyph glyph-name="quotedblright" unicode="&#x201d;" horiz-adv-x="872" 
d="M803 1421v-276q0 -125 -68.5 -198.5t-181.5 -84.5v115q59 12 89 55t30 109v22h-146v258h277zM70 1421h276v-276q0 -125 -68.5 -198.5t-181.5 -84.5v115q59 12 89 55t30 109v22h-145v258z" />
    <glyph glyph-name="quotedblbase" unicode="&#x201e;" horiz-adv-x="866" 
d="M526 268h271v-299q0 -128 -67.5 -191.5t-178.5 -60.5v99q59 3 90 42t31 105v37h-146v268zM70 268h270v-299q0 -129 -67 -192t-179 -60v99q60 3 91.5 42t31.5 105v37h-147v268z" />
    <glyph glyph-name="dagger" unicode="&#x2020;" horiz-adv-x="796" 
d="M719 963h-213v-555h-217v555h-211v202h211v256h217v-256h213v-202z" />
    <glyph glyph-name="daggerdbl" unicode="&#x2021;" horiz-adv-x="796" 
d="M506 963v-271h213v-203h-213v-256h-217v256h-211v203h211v271h-211v202h211v256h217v-256h213v-202h-213z" />
    <glyph glyph-name="bullet" unicode="&#x2022;" horiz-adv-x="641" 
d="M322 528q-92 0 -156 64t-64 156q0 90 64 153.5t156 63.5q89 0 153 -64t64 -153q0 -92 -63.5 -156t-153.5 -64z" />
    <glyph glyph-name="ellipsis" unicode="&#x2026;" horiz-adv-x="1769" 
d="M1675 289v-289h-291v289h291zM1030 289v-289h-291v289h291zM385 289v-289h-291v289h291z" />
    <glyph glyph-name="perthousand" unicode="&#x2030;" horiz-adv-x="1116" 
d="M115 610q0 204 131.5 337.5t343.5 133.5q218 0 343.5 -130t125.5 -341v-47h-271v53q0 22 -3 44t-15.5 52t-32.5 52t-58 37.5t-89 15.5q-90 0 -147.5 -56t-57.5 -145v-616h-270v610z" />
    <glyph glyph-name="guilsinglleft" unicode="&#x2039;" horiz-adv-x="430" 
d="M47 715l324 278v-215l-205 -164l205 -168v-215l-324 281v203z" />
    <glyph glyph-name="guilsinglright" unicode="&#x203a;" horiz-adv-x="430" 
d="M385 715v-203l-326 -281v215l205 168l-205 164v215z" />
    <glyph glyph-name="fraction" unicode="&#x2044;" 
d="M365 846v-268h-271v268h271z" />
    <glyph glyph-name="trademark" unicode="&#x2122;" horiz-adv-x="1884" 
d="M1782 1421v-893h-195v541l-178 -541h-213l-176 539v-539h-195v893h260l218 -649l219 649h260zM72 1421h649v-190h-223v-703h-203v703h-223v190z" />
    <glyph glyph-name="partialdiff" unicode="&#x2202;" 
d="M365 846v-268h-271v268h271z" />
    <glyph glyph-name="product" unicode="&#x220f;" 
d="M365 846v-268h-271v268h271z" />
    <glyph glyph-name="summation" unicode="&#x2211;" 
d="M365 846v-268h-271v268h271z" />
    <glyph glyph-name="radical" unicode="&#x221a;" 
d="M365 846v-268h-271v268h271z" />
    <glyph glyph-name="infinity" unicode="&#x221e;" horiz-adv-x="1730" 
d="M1602 1169h-273v152q0 57 40 96t97 39q56 0 96 -39t40 -96v-152zM715 793h-330v-793h-270v1040q0 219 126 348.5t347 104.5v-242q-101 6 -151.5 -42t-51.5 -156h330q3 214 129 339.5t344 100.5v-242q-101 6 -151.5 -42t-51.5 -156h617v-1053h-271v793h-346v-793h-270v793
z" />
    <glyph glyph-name="integral" unicode="&#x222b;" 
d="M365 846v-268h-271v268h271z" />
    <glyph glyph-name="approxequal" unicode="&#x2248;" 
d="M365 846v-268h-271v268h271z" />
    <glyph glyph-name="notequal" unicode="&#x2260;" horiz-adv-x="1230" 
d="M705 793h-320v-793h-270v1040q0 219 126 348.5t347 104.5v-242q-101 6 -151.5 -42t-51.5 -156h320q3 214 129 339.5t344 100.5v-242q-101 6 -151.5 -42t-51.5 -156h190v-260h-190v-793h-270v793z" />
    <glyph glyph-name="lessequal" unicode="&#x2264;" 
d="M365 846v-268h-271v268h271z" />
    <glyph glyph-name="greaterequal" unicode="&#x2265;" 
d="M365 846v-268h-271v268h271z" />
    <glyph glyph-name="lozenge" unicode="&#x25ca;" 
d="M365 846v-268h-271v268h271z" />
    <glyph glyph-name="apple" unicode="&#xf8ff;" horiz-adv-x="1851" 
d="M1767 711q0 -156 -61 -290t-160.5 -223t-224.5 -140.5t-256 -55.5l-25 -2v1397v26l25 -2q131 -4 256 -55.5t224.5 -140.5t160.5 -223.5t61 -290.5zM793 1421h188v-256h-188q-196 0 -317.5 -131.5t-121.5 -322.5t121.5 -323t317.5 -132h188v-256h-188q-157 0 -291.5 57.5
t-225 155t-141.5 227t-51 271.5t51 271.5t141.5 226.5t225 154.5t291.5 57.5zM1174 1360q132 -106 208 -305q98 36 177 86q-75 85 -174.5 141t-210.5 78zM1090 999q144 10 247 41q-43 112 -108.5 195.5t-138.5 124.5v-361zM1399 1008q40 -132 43 -273h276q-6 207 -129 369
q-89 -59 -190 -96zM1090 735h305q-3 133 -43 258q-122 -35 -262 -41v-217zM1090 471q144 -6 262 -43q40 125 43 260h-305v-217zM1718 688h-276q-3 -139 -43 -274q95 -32 190 -95q123 159 129 369zM1090 63q72 39 138 123t109 197q-108 33 -247 39v-359zM1559 283
q-79 50 -177 86q-77 -200 -208 -306q110 22 209.5 78.5t175.5 141.5z" />
    <glyph glyph-name="fi" unicode="&#xfb01;" horiz-adv-x="1130" 
d="M1001 1169h-272v152q0 57 40 96t97 39q56 0 95.5 -39t39.5 -96v-152zM731 793h-346v-793h-270v1040q0 219 126 348.5t347 104.5v-242q-101 6 -151.5 -42t-51.5 -156h616v-1053h-270v793z" />
    <glyph glyph-name="fl" unicode="&#xfb02;" horiz-adv-x="1230" 
d="M737 442v1082h273v-1082q0 -110 49 -155t151 -39v-246q-226 -24 -349.5 96.5t-123.5 343.5zM385 1053h190v-260h-190v-793h-270v1040q0 219 126 348.5t347 104.5v-242q-101 6 -151.5 -42t-51.5 -156z" />
    </font>
</defs>
</svg>
